<?xml version="1.0" encoding="UTF-8"?>
<svg id="Capa_1" xmlns="http://www.w3.org/2000/svg" version="1.1" viewBox="0 0 593 576">
  <!-- Generator: Adobe Illustrator 30.1.0, SVG Export Plug-In . SVG Version: 2.1.1 Build 136)  -->
  <defs>
    <style>
      .st0 {
        fill: #15f5ba;
      }
    </style>
  </defs>
  <path class="st0" d="M393.78,333.9c14.55,0,26.34-11.79,26.34-26.34s-11.79-26.34-26.34-26.34-26.34,11.79-26.34,26.34,11.79,26.34,26.34,26.34Z"/>
  <path class="st0" d="M331.45,82.01c14.55,0,26.34-11.79,26.34-26.34s-11.79-26.34-26.34-26.34-26.34,11.79-26.34,26.34,11.79,26.34,26.34,26.34Z"/>
  <path class="st0" d="M269.3,333.9c14.55,0,26.34-11.79,26.34-26.34s-11.79-26.34-26.34-26.34-26.34,11.79-26.34,26.34,11.79,26.34,26.34,26.34Z"/>
  <path class="st0" d="M58.6,288.25h-4.53c-9.03,0-16.35,7.32-16.35,16.35v1.79c0,9.03,7.32,16.35,16.35,16.35h4.53c9.03,0,16.35-7.32,16.35-16.35v-1.79c0-9.03-7.32-16.35-16.35-16.35Z"/>
  <path class="st0" d="M105.28,239.97h-2.73c-9.52,0-17.24,7.72-17.24,17.24h0c0,9.52,7.72,17.24,17.24,17.24h2.73c9.52,0,17.24-7.72,17.24-17.24h0c0-9.52-7.72-17.24-17.24-17.24Z"/>
  <path class="st0" d="M101.75,333.9h-2.73c-9.52,0-17.24,7.72-17.24,17.24h0c0,9.52,7.72,17.24,17.24,17.24h2.73c9.52,0,17.24-7.72,17.24-17.24h0c0-9.52-7.72-17.24-17.24-17.24Z"/>
  <path class="st0" d="M549.34,265.66c-7.55-32.79-22.81-63.19-43.46-89.64-41.09-52.59-105.09-84.4-171.63-86.81-37.06-1.35-73.92,6.72-107.33,22.63-32.84,15.62-61.1,39.55-83.13,68.33-5.14,6.71-9.88,13.69-14.23,20.94-4.5,7.5-1.92,18.67,5.99,22.86,8.09,4.27,18.05,2.02,22.86-5.99,3.06-5.11,6.31-10.09,9.78-14.94.78-1.09,1.58-2.17,2.38-3.25.19-.25.39-.56.61-.86.1-.1.19-.2.27-.31,1.92-2.39,3.84-4.77,5.84-7.09,7.73-8.99,16.21-17.34,25.32-24.92,1.18-.98,2.36-1.95,3.56-2.9.25-.2.51-.41.78-.61,2.45-1.81,4.88-3.61,7.39-5.34,4.89-3.38,9.94-6.57,15.1-9.53,5.19-2.97,10.5-5.73,15.93-8.26,1.23-.57,2.47-1.13,3.7-1.68.23-.1.47-.22.72-.34.17-.06.37-.14.64-.25,2.9-1.16,5.78-2.3,8.72-3.36,11.5-4.13,23.37-7.26,35.4-9.33,1.37-.24,2.76-.46,4.14-.67.34-.05.67-.1,1.02-.15,3.05.14,6.48-.75,9.55-.99,6.46-.52,12.93-.74,19.4-.67,5.56.06,11.11.33,16.64.81,2.54.23,5.07.52,7.6.81.52.08,1.04.15,1.55.23,1.61.24,3.23.51,4.83.8,10.75,1.91,21.36,4.65,31.68,8.2,2.5.86,5.01,1.77,7.49,2.73,1.3.5,2.58,1.03,3.86,1.54.39.17.78.33.95.41,4.98,2.19,9.88,4.56,14.67,7.13,9.55,5.11,18.62,10.98,27.32,17.42.18.13.32.23.44.33,1.06.84,2.11,1.68,3.15,2.53,2.15,1.75,4.27,3.56,6.34,5.4,4.03,3.56,7.92,7.28,11.67,11.15,3.75,3.86,7.35,7.86,10.81,12,.78.93,1.55,1.87,2.31,2.82.13.17.65.81,1.14,1.44.32.43,1.37,1.81,1.67,2.2.93,1.26,1.84,2.53,2.75,3.81,6.24,8.85,11.8,18.17,16.63,27.87,1.17,2.35,2.3,4.74,3.38,7.14.42.92.81,1.84,1.22,2.77.27.67.55,1.33.81,2,1.97,4.93,3.75,9.95,5.33,15.03,3.32,10.59,5.7,21.4,7.37,32.35.05.39.1.79.15,1.18.15,1.27.29,2.54.42,3.81.32,3.11.56,6.23.74,9.36.32,5.58.42,11.17.31,16.76-.11,5.73-.47,11.45-1.04,17.15-.15,1.46-.31,2.91-.48,4.36-.01.13-.03.24-.04.36,0,.03,0,.05-.01.09-.43,2.87-.89,5.73-1.44,8.58-2.05,10.89-4.96,21.62-8.68,32.05-.89,2.49-1.83,4.97-2.82,7.44-.06.17-.14.33-.2.5-.8,1.02-1.33,3.1-1.84,4.26-2.25,4.95-4.69,9.81-7.31,14.57-2.61,4.74-5.4,9.38-8.36,13.91-1.44,2.19-2.9,4.35-4.41,6.47-.7.99-1.42,1.98-2.14,2.96-.32.43-.65.86-.97,1.3.04-.04.08-.08.11-.1l-.13.13c-.09.11-.18.24-.27.36-1.37,1.86-.85.75.05-.17-1.69,1.59-3.1,4.02-4.56,5.76-1.78,2.12-3.61,4.22-5.48,6.28-3.61,3.99-7.37,7.83-11.29,11.53-3.9,3.7-7.96,7.26-12.13,10.65-.66.55-1.35,1.08-2.02,1.61-.43.18-1.37,1.07-1.59,1.22-2.22,1.67-4.49,3.29-6.79,4.87-8.92,6.14-18.32,11.59-28.08,16.28-2.21,1.07-4.45,2.1-6.7,3.09-.38.17-1.35.44-1.82.75-.99.41-2,.8-3,1.19-5.29,2.05-10.67,3.88-16.12,5.49-5.15,1.53-10.36,2.85-15.61,3.98-2.64.57-5.3,1.08-7.97,1.55-1.42.25-2.86.48-4.3.7-.46.08-.93.14-1.39.2-11.96,1.37-23.92,1.98-35.96,1.46-3.55-.15-7.08-.39-10.6-.72-1.87-.18-3.74-.38-5.59-.6-.03,0-.08,0-.13-.01-.66-.1-2.1-.29-2.36-.33-7.07-1.09-14.09-2.53-21.01-4.33-6.84-1.78-13.58-3.89-20.2-6.34-1.7-.62-3.38-1.28-5.07-1.95-.56-.23-1.13-.46-1.69-.69-3.27-1.47-6.52-2.94-9.74-4.53-3.01-1.49-5.91-3.23-8.94-4.69-4.26-2.07-8.44-2.63-13.08-1.63-1.06.23-2.1.56-3.13.84-5.03,1.35-10.06,2.7-15.09,4.04-14.99,4.02-29.98,8.03-44.98,12.05-6.28,1.68-12.56,3.37-18.83,5.05-.41.11-.81.22-1.22.33.46-1.83.9-3.66,1.39-5.47,6.84-25.53,14.29-50.96,20.53-76.63,1.23-5.07.65-9.8-1.77-14.5-3.41-6.66-6.92-13.2-9.9-20.07-3.48-8.05-15.9-10.48-22.86-5.99-8.35,5.39-9.73,14.24-5.99,22.86,2.11,4.86,4.39,9.64,6.83,14.33-7.04,26.3-14.1,52.6-21.14,78.92-2.45,9.14-3.74,18.38,1.41,27.13,7.5,12.73,21.6,16.7,35.25,13.04,15.39-4.13,30.79-8.25,46.2-12.38,11.98-3.22,23.96-6.42,35.94-9.64,66.51,34.02,146.87,33.71,213.01-1.45,57.83-30.75,101.1-87.19,115.35-151.16,7.55-33.92,7.45-69.27-.36-103.14v-.04ZM402.4,498.38c-.25.1-.51.2-.75.31.86-.39,3.04-1.21.75-.31ZM445.61,473.2c-2.1,1.67.24-.29.8-.64-.27.22-.53.43-.8.64Z"/>
  <path class="st0" d="M482.13,436.49c-.08.06-.15.14-.23.22.08-.06.14-.14.22-.2h0s.01-.01.01-.01Z"/>
  <path class="st0" d="M128.12,511.62h.05s-.05.01-.05,0Z"/>
</svg>